<svg width="20" height="20" viewBox="0 0 20 20" fill="none" xmlns="http://www.w3.org/2000/svg">
<path d="M10 20C8.02219 20 6.08879 19.4135 4.4443 18.3147C2.79981 17.2159 1.51809 15.6541 0.761209 13.8268C0.00433286 11.9996 -0.1937 9.98891 0.192152 8.0491C0.578004 6.10929 1.53041 4.32746 2.92894 2.92894C4.32746 1.53041 6.10929 0.578003 8.0491 0.19215C9.98891 -0.193701 11.9996 0.0043335 13.8268 0.761209C15.6541 1.51809 17.2159 2.79981 18.3147 4.4443C19.4135 6.08879 20 8.02219 20 10C20 12.6522 18.9464 15.1957 17.0711 17.0711C15.1957 18.9464 12.6522 20 10 20ZM17.68 6H13.68C13.863 7.10245 13.97 8.2162 14 9.33334H18.6667C18.5683 8.16661 18.2325 7.03229 17.68 6ZM10 1.33334C9.33334 1.33334 8.52 2.55334 7.96 4.66667H12.0333C11.48 2.55334 10.6667 1.33334 10 1.33334ZM7.67334 6C7.47665 7.10103 7.36299 8.21528 7.33334 9.33334H12.6667C12.6414 8.21561 12.5322 7.10137 12.34 6H7.67334ZM1.37334 9.33334H6.04C6.06784 8.21635 6.17253 7.10261 6.35334 6H2.35334C1.8008 7.03229 1.46504 8.16661 1.36667 9.33334H1.37334ZM2.32667 14H6.32667C6.14139 12.8977 6.03225 11.784 6 10.6667H1.33334C1.4317 11.8334 1.76746 12.9677 2.32 14H2.32667ZM10 18.6667C10.6667 18.6667 11.48 17.4467 12.04 15.3333H7.96C8.52 17.4467 9.33334 18.6667 10 18.6667ZM12.3267 14C12.5234 12.899 12.637 11.7847 12.6667 10.6667H7.33334C7.35859 11.7844 7.46778 12.8986 7.66 14H12.3267ZM14 10.6667C13.9722 11.7837 13.8675 12.8974 13.6867 14H17.6867C18.2276 12.9652 18.552 11.831 18.64 10.6667H14ZM16.8267 15.3333H13.4067C13.176 16.3933 12.7895 17.4133 12.26 18.36C14.067 17.8701 15.6668 16.8083 16.82 15.3333H16.8267ZM7.74 18.36C7.21046 17.4133 6.82404 16.3933 6.59334 15.3333H3.18C4.33318 16.8083 5.93298 17.8701 7.74 18.36ZM3.18 4.66667H6.58667C6.81737 3.6067 7.20379 2.58675 7.73334 1.64C5.92874 2.13117 4.33145 3.19291 3.18 4.66667ZM12.26 1.64C12.7895 2.58675 13.176 3.6067 13.4067 4.66667H16.8133C15.6619 3.19291 14.0646 2.13117 12.26 1.64Z" fill="black"/>
</svg>
